PathFileType	4	(X/Y/Z)	/Users/itak/Documents/Research/Walk-IL/dataset/trc/00470_00167.trc
DataRate	CameraRate	NumFrames	NumMarkers	Units	OrigDataRate	OrigDataStartFrame	OrigNumFrames
100.000000	100.000000	4	53	mm	100.000000	237	632
Frame#	Time	RPSI			LPSI			L3			STRN			T10			C7			CLAV			RBAK			LBAK			LSHO			LUPA			LAEL			LAOL			LWTS			LWPS			LFRA			LIFD			LHPS			LHTS			RSHO			RUPA			RAEL			RAOL			RWTS			RWPS			RFRA			RIFD			RHTS			RHPS			RBHD			LFHD			RFHD			LBHD			LHIP			RHIP			RASI			LASI			LKNE			LTHI			LANK			LTIP			LTOE			LMT1			LMT5			LHEE			RKNE			RTHI			RANK			RTIP			RTOE			RMT1			RMT5			RHEE			
		X1	Y1	Z1	X2	Y2	Z2	X3	Y3	Z3	X4	Y4	Z4	X5	Y5	Z5	X6	Y6	Z6	X7	Y7	Z7	X8	Y8	Z8	X9	Y9	Z9	X10	Y10	Z10	X11	Y11	Z11	X12	Y12	Z12	X13	Y13	Z13	X14	Y14	Z14	X15	Y15	Z15	X16	Y16	Z16	X17	Y17	Z17	X18	Y18	Z18	X19	Y19	Z19	X20	Y20	Z20	X21	Y21	Z21	X22	Y22	Z22	X23	Y23	Z23	X24	Y24	Z24	X25	Y25	Z25	X26	Y26	Z26	X27	Y27	Z27	X28	Y28	Z28	X29	Y29	Z29	X30	Y30	Z30	X31	Y31	Z31	X32	Y32	Z32	X33	Y33	Z33	X34	Y34	Z34	X35	Y35	Z35	X36	Y36	Z36	X37	Y37	Z37	X38	Y38	Z38	X39	Y39	Z39	X40	Y40	Z40	X41	Y41	Z41	X42	Y42	Z42	X43	Y43	Z43	X44	Y44	Z44	X45	Y45	Z45	X46	Y46	Z46	X47	Y47	Z47	X48	Y48	Z48	X49	Y49	Z49	X50	Y50	Z50	X51	Y51	Z51	X52	Y52	Z52	X53	Y53	Z53	

238	2.37	-347.7511596679688	938.49951171875	-449.2355346679688	-360.2796325683594	949.5606079101562	-591.4778442382812	-336.21142578125	1049.237426757812	-517.476806640625	-56.53717803955078	1238.483154296875	-537.5546264648438	-342.8096618652344	1172.7861328125	-528.4498901367188	-269.5765991210938	1438.716674804688	-522.5003662109375	-89.26394653320312	1351.740112304688	-534.5541381835938	-335.1893005371094	1320.16064453125	-430.3263854980469	-302.74462890625	1394.241088867188	-622.4804077148438	-199.1697540283203	1420.792236328125	-695.8291015625	-192.7422485351562	1317.18896484375	-806.1468505859375	-120.987663269043	1120.444091796875	-868.9678955078125	-200.1758270263672	1076.696899414062	-817.690673828125	21.96063804626465	955.7869873046875	-820.9114990234375	-11.22829723358154	932.1800537109375	-883.2281494140625	-69.34822845458984	1046.008666992188	-878.3968505859375	84.98282623291016	811.7149047851562	-853.4801635742188	23.5388355255127	866.1143188476562	-893.18408203125	68.1248779296875	883.5540771484375	-839.1917114257812	-204.9893188476562	1409.190185546875	-363.9716491699219	-231.1183624267578	1356.830078125	-288.4194641113281	-262.1507873535156	1082.678955078125	-202.1082458496094	-316.0456848144531	1066.939453125	-240.3727416992188	-174.1253051757812	869.4590454101562	-236.4376525878906	-236.2037048339844	861.7783203125	-174.3455200195312	-261.6889343261719	1024.349609375	-187.9731140136719	-173.5551910400391	715.241455078125	-213.4445495605469	-160.0747985839844	774.09619140625	-217.9843902587891	-221.7535858154297	775.3216552734375	-170.4759674072266	-196.3197631835938	1626.91015625	-431.5077514648438	-34.32023620605469	1647.905151367188	-557.7171020507812	-59.66130828857422	1643.952880859375	-429.8343811035156	-177.9503021240234	1636.854248046875	-608.0283203125	-233.3157806396484	852.1336669921875	-722.044921875	-200.3549194335938	844.036376953125	-324.8171997070312	-118.1818084716797	894.1658935546875	-403.97021484375	-128.1188201904297	890.200439453125	-656.23828125	-204.940673828125	428.2362976074219	-670.1317749023438	-186.4599914550781	583.4550170898438	-700.72216796875	-371.498046875	40.77652359008789	-651.8479614257812	-246.7261657714844	275.7616271972656	-674.4848022460938	-147.5603942871094	41.24538421630859	-557.8804321289062	-225.7176818847656	49.92276763916016	-540.8248901367188	-214.2870483398438	39.72951126098633	-654.6513061523438	-421.64013671875	49.30158233642578	-592.1817016601562	-15.58716869354248	492.005615234375	-360.32666015625	-109.4229507446289	734.4552612304688	-320.1845397949219	-58.83962631225586	54.64587020874023	-372.8864135742188	-7.095751285552979	344.230224609375	-354.2305908203125	149.9188232421875	82.13396453857422	-415.9002380371094	89.80324554443359	74.86182403564453	-457.0921325683594	68.85300445556641	54.63216400146484	-355.7345275878906	-125.6944198608398	53.47077178955078	-415.6880798339844	
239	2.38	-336.3440551757812	935.1210327148438	-449.050048828125	-349.4804992675781	946.7989501953125	-591.0353393554688	-326.1311950683594	1046.4345703125	-516.9186401367188	-46.77006149291992	1236.116088867188	-536.6817626953125	-332.8008728027344	1169.983764648438	-527.8977661132812	-260.0548095703125	1435.817749023438	-522.2080078125	-79.79023742675781	1349.214477539062	-533.3977661132812	-325.5724487304688	1316.900756835938	-430.4069519042969	-292.5090026855469	1391.429809570312	-622.5469360351562	-188.5137329101562	1418.6904296875	-695.00390625	-180.0976867675781	1315.794799804688	-805.7866821289062	-104.5206985473633	1120.435791015625	-868.5557250976562	-183.9667663574219	1075.374877929688	-818.8330078125	40.49109649658203	957.9664916992188	-818.0164794921875	8.659382820129395	934.0287475585938	-880.950439453125	-51.44513320922852	1046.849609375	-877.1141357421875	105.8254928588867	814.6372680664062	-850.2559204101562	44.56128311157227	868.6305541992188	-890.6539306640625	87.99760437011719	886.2724609375	-835.7760009765625	-196.0222320556641	1406.380126953125	-363.3163146972656	-222.5621795654297	1354.054809570312	-287.8606262207031	-255.3855133056641	1080.119140625	-201.8808898925781	-309.0230712890625	1064.865600585938	-240.5847930908203	-169.4939422607422	865.792236328125	-235.173095703125	-232.0930786132812	859.1065673828125	-173.5216979980469	-255.6369934082031	1021.857116699219	-187.6049499511719	-171.1768646240234	711.6559448242188	-211.6910400390625	-156.8721618652344	770.2958984375	-216.3748168945312	-218.8092041015625	772.5275268554688	-169.2497711181641	-188.0713043212891	1623.561767578125	-430.0796508789062	-24.81291007995605	1645.476928710938	-554.5757446289062	-51.44506454467773	1640.878295898438	-427.015380859375	-167.8993072509766	1634.399536132812	-606.4153442382812	-222.9184112548828	850.4232177734375	-722.1856079101562	-188.7725372314453	840.4197387695312	-325.4975891113281	-106.2726058959961	891.4031372070312	-404.330078125	-117.4581604003906	888.2271118164062	-656.601318359375	-199.0697631835938	426.2073974609375	-670.2113647460938	-178.5076293945312	581.5404052734375	-700.6409912109375	-371.5504150390625	41.08657073974609	-651.4785766601562	-243.1949157714844	274.2160949707031	-674.2951049804688	-147.4249114990234	41.03927993774414	-557.7869262695312	-225.6763458251953	49.74737930297852	-540.5798950195312	-214.3771820068359	39.7904052734375	-654.5405883789062	-421.5419616699219	49.59851837158203	-591.6026000976562	-3.402230501174927	488.9953002929688	-362.82568359375	-98.29616546630859	730.6110229492188	-321.0736694335938	-19.48781967163086	49.98414611816406	-374.2427368164062	13.8462028503418	342.614013671875	-356.1773376464844	187.4703216552734	88.55040740966797	-417.4779357910156	127.6983795166016	78.15281677246094	-458.443603515625	108.0179977416992	56.44183349609375	-357.2390441894531	-86.35970306396484	45.63368606567383	-416.8976745605469	
240	2.39	-324.8057861328125	931.4127197265625	-448.8775329589844	-338.5830993652344	943.80908203125	-590.5757446289062	-316.0009155273438	1043.346435546875	-516.2449951171875	-36.92135620117188	1233.446655273438	-535.5625	-322.7733764648438	1166.8798828125	-527.2301635742188	-250.4596099853516	1432.6123046875	-521.8745727539062	-70.24211883544922	1346.392456054688	-532.0484619140625	-315.8882751464844	1313.342895507812	-430.4378662109375	-282.1318969726562	1388.2900390625	-622.555908203125	-177.6773529052734	1416.206787109375	-694.0518188476562	-167.1779022216797	1314.050170898438	-805.2556762695312	-87.69219207763672	1120.118408203125	-867.77099609375	-167.4521026611328	1073.796020507812	-819.708251953125	59.20572280883789	959.8194580078125	-814.54541015625	28.84699440002441	935.562255859375	-878.1067504882812	-33.2145881652832	1047.387329101562	-875.3807373046875	126.7656860351562	817.1715698242188	-846.242919921875	65.78492736816406	870.8140869140625	-887.4473266601562	108.0172653198242	888.6130981445312	-831.6458129882812	-187.0884857177734	1403.374389648438	-362.5707702636719	-214.0786285400391	1351.104736328125	-287.1874389648438	-248.6019744873047	1077.304077148438	-201.7013702392578	-302.0084838867188	1062.564086914062	-240.8332366943359	-164.9143371582031	861.8876953125	-234.0800323486328	-228.013916015625	856.1978759765625	-172.8462371826172	-249.5868835449219	1019.115478515625	-187.3153686523438	-168.9746398925781	707.8258666992188	-210.2000579833984	-153.82470703125	766.229736328125	-215.0127716064453	-215.9674987792969	769.4940185546875	-168.231201171875	-179.8356323242188	1619.94873046875	-428.6685180664062	-15.30932140350342	1642.789794921875	-551.3804931640625	-43.26521301269531	1637.578857421875	-424.1648559570312	-157.8267059326172	1631.605224609375	-604.7863159179688	-212.4362335205078	848.5213623046875	-722.3340454101562	-177.1434326171875	836.3895263671875	-326.2315673828125	-94.2467041015625	888.3013916015625	-404.6582641601562	-106.7165679931641	886.100830078125	-656.9796752929688	-193.0546722412109	424.0778503417969	-670.438232421875	-170.487548828125	579.5279541015625	-700.7286987304688	-371.580078125	41.34804534912109	-651.0863647460938	-239.5950622558594	272.6126098632812	-674.2247314453125	-147.26806640625	40.84341049194336	-557.7213745117188	-225.6172943115234	49.62688064575195	-540.3821411132812	-214.4840545654297	39.83989334106445	-654.4452514648438	-421.4367980957031	49.95399475097656	-590.9911499023438	8.58001708984375	485.6434631347656	-365.2075805664062	-87.31028747558594	726.294677734375	-322.0175170898438	19.15614700317383	46.69240951538086	-375.6141662597656	34.31182098388672	341.1696472167969	-358.0455017089844	223.8587951660156	95.76484680175781	-419.1030883789062	164.4784698486328	82.3260498046875	-459.7983703613281	146.1736755371094	59.35211563110352	-358.7229309082031	-47.50157928466797	39.24104690551758	-418.2328186035156	
241	2.4	-313.1383361816406	927.3827514648438	-448.7091369628906	-327.5950927734375	940.6026000976562	-590.0946044921875	-305.8028869628906	1039.968383789062	-515.4699096679688	-26.97369003295898	1230.476196289062	-534.1596069335938	-312.6986999511719	1163.474975585938	-526.4702758789062	-240.7801361083984	1429.117797851562	-521.4890747070312	-60.59524536132812	1343.282958984375	-530.4740600585938	-306.1581726074219	1309.494384765625	-430.4334411621094	-271.59716796875	1384.8388671875	-622.5051879882812	-166.6262054443359	1413.331787109375	-692.959716796875	-153.9407196044922	1311.93017578125	-804.511962890625	-70.45616912841797	1119.484619140625	-866.5812377929688	-150.6047515869141	1071.94580078125	-820.2974853515625	78.17066192626953	961.3618774414062	-810.480224609375	49.38920211791992	936.7908935546875	-874.6650390625	-14.60447692871094	1047.626098632812	-873.1666259765625	147.8567657470703	819.32373046875	-841.37109375	87.25809478759766	872.6389770507812	-883.500244140625	128.2341003417969	890.5863037109375	-826.75732421875	-178.2319183349609	1400.180541992188	-361.7257995605469	-205.7308959960938	1347.9892578125	-286.4079895019531	-241.8353576660156	1074.243774414062	-201.5625457763672	-295.0296020507812	1060.030395507812	-241.1227722167969	-160.3570098876953	857.7616577148438	-233.1642913818359	-223.9378509521484	853.0586547851562	-172.3294677734375	-243.5542907714844	1016.127380371094	-187.1036376953125	-166.9153289794922	703.7723999023438	-209.0110626220703	-150.8879699707031	761.9187622070312	-213.9248199462891	-213.1925354003906	766.230712890625	-167.4438934326172	-171.6028594970703	1616.118041992188	-427.2806701660156	-5.802978992462158	1639.866088867188	-548.13818359375	-35.11760711669922	1634.101318359375	-421.2804260253906	-147.7216644287109	1628.484497070312	-603.1438598632812	-201.9022674560547	846.4254150390625	-722.5093383789062	-165.4254455566406	832.0023193359375	-327.0043640136719	-82.10325622558594	884.8854370117188	-404.97802734375	-95.90861511230469	883.8050537109375	-657.4010620117188	-186.9519348144531	421.8576965332031	-670.8111572265625	-162.4765625	577.4103393554688	-700.985595703125	-371.589599609375	41.5703010559082	-650.6461181640625	-235.9741668701172	270.950439453125	-674.2701416015625	-147.0829010009766	40.6694450378418	-557.681640625	-225.5236206054688	49.55340957641602	-540.2462158203125	-214.6139984130859	39.87879180908203	-654.3641967773438	-421.3214416503906	50.37671661376953	-590.3347778320312	20.44801712036133	482.0295715332031	-367.4403076171875	-76.3765869140625	721.6072998046875	-323.0149536132812	56.86961364746094	44.67179107666016	-377.0556335449219	54.25466537475586	339.8855590820312	-359.8198852539062	258.9583740234375	103.6366195678711	-420.713623046875	200.0304107666016	87.28388214111328	-461.1374206542969	183.1352844238281	63.21334457397461	-360.1897888183594	-9.326325416564941	34.23892974853516	-419.8062744140625	
